<?xml version="1.0" encoding="iso-8859-1"?>
<!-- Generator: Adobe Illustrator 21.1.0, SVG Export Plug-In . SVG Version: 6.00 Build 0)  -->
<svg xmlns="http://www.w3.org/2000/svg" xmlns:xlink="http://www.w3.org/1999/xlink" version="1.1" id="Layer_1" x="0px" y="0px" viewBox="0 0 48 48" style="enable-background:new 0 0 48 48;" xml:space="preserve" width="50px" height="50px">
<g>
	<g>
		<g>
			<g>
			</g>
		</g>
	</g>
</g>
<path style="fill:none;stroke:#fff;stroke-width:5;stroke-linecap:round;stroke-miterlimit:10;" d="M23.5,42.5  c0,0-7.669-7.644-10-10c-0.391-0.395-0.998-1.105-1.003-1.11C10.013,28.641,8.5,24.997,8.5,21c0-8.56,6.94-15.5,15.5-15.5  S39.5,12.44,39.5,21c0,2.947-0.822,5.701-2.25,8.047c-0.081,0.134-0.165,0.266-0.25,0.397c-0.012,0.019-0.037,0.056-0.037,0.056"/>
<path style="fill:none;stroke:#fff;stroke-width:5;stroke-linecap:round;stroke-miterlimit:10;" d="M30.625,35.625  c0,0-8.451-8.542-10.418-10.628c-0.147-0.155-0.258-0.276-0.328-0.355C19.021,23.673,18.5,22.397,18.5,21c0-3.038,2.462-5.5,5.5-5.5  s5.5,2.462,5.5,5.5c0,0.475-0.06,0.935-0.173,1.375l0,0c-0.006,0.024-0.028,0.103-0.029,0.108c-0.002,0.009-0.005,0.017-0.005,0.017  "/>
</svg>
